<?xml version="1.0" encoding="utf-8"?>
<!-- Generator: Adobe Illustrator 17.0.0, SVG Export Plug-In . SVG Version: 6.00 Build 0)  -->
<!DOCTYPE svg PUBLIC "-//W3C//DTD SVG 1.1//EN" "http://www.w3.org/Graphics/SVG/1.1/DTD/svg11.dtd">
<svg version="1.1" id="图层_1" xmlns="http://www.w3.org/2000/svg" xmlns:xlink="http://www.w3.org/1999/xlink" x="0px" y="0px"
	 width="35px" height="36px" viewBox="238.5 238.5 35 36" enable-background="new 238.5 238.5 35 36" xml:space="preserve">
<g opacity="0.8">
	<g opacity="0.5">
		<path d="M256,239.5c-9.665,0-17.5,7.835-17.5,17.5c0,9.665,7.835,17.5,17.5,17.5c9.665,0,17.5-7.835,17.5-17.5
			C273.5,247.335,265.665,239.5,256,239.5z M256,271.219c-7.853,0-14.219-6.366-14.219-14.219s6.366-14.219,14.219-14.219
			s14.219,6.366,14.219,14.219S263.853,271.219,256,271.219z M251.625,249.344L264.75,257l-13.125,7.656V249.344z"/>
	</g>
	<g>
		<path fill="#FFFFFF" d="M256,238.5c-9.665,0-17.5,7.835-17.5,17.5c0,9.665,7.835,17.5,17.5,17.5c9.665,0,17.5-7.835,17.5-17.5
			C273.5,246.335,265.665,238.5,256,238.5z M256,270.219c-7.853,0-14.219-6.366-14.219-14.219s6.366-14.219,14.219-14.219
			s14.219,6.366,14.219,14.219S263.853,270.219,256,270.219z M251.625,248.344L264.75,256l-13.125,7.656V248.344z"/>
	</g>
</g>
</svg>
